<svg width="119" height="120" viewBox="0 0 119 120" fill="none" xmlns="http://www.w3.org/2000/svg">
<g clip-path="url(#clip0_37_625)">
<path d="M118.36 15.24V14.32C118.599 12.0946 118.719 9.85813 118.72 7.62V0H109.18H107.7H106.88H106.52H106.18L104.56 0.16H103.74C99.955 0.736315 96.2367 1.68766 92.64 3L91.3 3.48C88.8779 4.35756 86.5133 5.38625 84.22 6.56C81.9279 7.7466 79.7165 9.08282 77.6 10.56L77.26 10.8C76.08 11.62 74.92 12.52 73.78 13.44C69.5371 16.9074 65.7948 20.9458 62.66 25.44C60.7668 25.7963 58.8283 25.8436 56.92 25.58L56.18 25.46C55.5 24.48 54.78 23.46 54.04 22.6L53.28 21.64C52.8 21.06 52.3 20.48 51.8 19.92C51.3 19.36 50.34 18.32 49.58 17.54C48.1393 16.0824 46.6239 14.7005 45.04 13.4C43.92 12.48 42.76 11.6 41.58 10.76L41.24 10.52L39.62 9.44C35.8656 6.98254 31.8386 4.96907 27.62 3.44H27.5L26.28 3C22.6651 1.79682 18.9404 0.952738 15.16 0.48H14.3L12.76 0.22L12 0.16H11.32L10.36 0H10H7.62H0V7.62C0.00131779 9.85813 0.121487 12.0946 0.36 14.32L0.46 15.24C0.945467 19.0313 1.78924 22.768 2.98 26.4L3.46 27.74L3.7 28.4C5.11329 32.2696 6.92291 35.9827 9.1 39.48L10.54 41.58L10.78 41.92C11.64 43.16 12.5 44.32 13.4 45.44C16.8653 49.7196 20.9032 53.5017 25.4 56.68C25.5339 57.7813 25.5674 58.8926 25.5 60C25.5021 61.1135 25.4017 62.2249 25.2 63.32C20.7032 66.4983 16.6653 70.2804 13.2 74.56C12.2 75.8 11.2 77.1 10.34 78.4C9.88 79.08 9.44 79.78 9.02 80.4C6.85064 83.9016 5.04141 87.6139 3.62 91.48L3.38 92.14L2.9 93.5C1.73414 97.1671 0.923737 100.938 0.48 104.76L0.38 105.68C0.134806 107.905 0.00796021 110.142 0 112.38L0 120H9.36H10.64H10.92H12.18H12.58C13.14 120 13.7 120 14.24 119.84L15.08 119.74C18.8683 119.197 22.5933 118.28 26.2 117L27.54 116.5C28.14 116.3 28.74 116.06 29.34 115.82C30.42 115.4 31.5 114.92 32.56 114.44L32.9 114.28C35.8054 112.893 38.5944 111.274 41.24 109.44L41.56 109.22C42.72 108.38 43.9 107.5 45.02 106.58C49.2572 103.106 52.9986 99.069 56.14 94.58L56.88 94.46H57.16H57.66H58H58.46H60.46H60.94H61.24H61.96L62.68 94.58C65.8297 99.0685 69.5777 103.106 73.82 106.58C74.94 107.5 76.1 108.38 77.3 109.22L77.64 109.44C81.3771 112.033 85.4044 114.181 89.64 115.84C90.22 116.08 90.84 116.3 91.44 116.52L92.78 117C96.3685 118.2 100.066 119.044 103.82 119.52L104.68 119.62C106.18 119.8 107.68 119.9 109.18 119.96H118.94V112.38C118.939 110.142 118.819 107.905 118.58 105.68V105.52V104.76C118.11 100.976 117.279 97.2459 116.1 93.62L115.66 92.36V92.24C113.935 87.3497 111.582 82.7041 108.66 78.42L108.56 78.3V78.18C107.72 76.98 106.86 75.78 105.94 74.66C102.663 70.6282 98.8705 67.0442 94.66 64L93.62 63.22C93.22 61.0382 93.22 58.8018 93.62 56.62C98.1221 53.4404 102.161 49.6508 105.62 45.36C106.54 44.22 107.42 43.04 108.24 41.84L108.38 41.64L108.48 41.52C111.39 37.222 113.743 32.5714 115.48 27.68V27.56L115.94 26.3C117.119 22.6741 117.95 18.9438 118.42 15.16L118.36 15.24ZM91.08 17.82C91.4665 16.5672 91.7738 15.2914 92 14C92 13.58 92.16 13.14 92.22 12.72C92.2282 12.6737 92.2282 12.6263 92.22 12.58C92.22 12.18 92.34 11.8 92.38 11.4C92.3897 11.2936 92.3897 11.1864 92.38 11.08C92.38 10.74 92.38 10.42 92.48 10.08C92.58 9.74 92.48 9.64 92.48 9.4C92.48 9.16 92.48 8.96 92.48 8.76C92.48 8.56 92.48 7.86 92.48 7.4V5.16L93.44 4.84L94 4.7L95.14 4.36H95.36C95.78 4.22 96.22 4.1 96.66 4C98.9347 3.39703 101.246 2.94274 103.58 2.64V7.62C103.574 9.71416 103.426 11.8055 103.14 13.88C98.9211 14.6441 94.8287 15.9903 90.98 17.88L91.08 17.82ZM91.62 32.98C86.9606 36.4841 83.2881 41.1351 80.96 46.48L80.84 46.78C79.9 47.3 79.02 47.76 78.16 48.16C74.8628 49.7403 71.3732 50.8833 67.78 51.56C68.4656 47.9266 69.601 44.3928 71.16 41.04C71.58 40.12 72.04 39.2 72.54 38.3C74.9242 37.2743 77.1797 35.972 79.26 34.42C81.8963 32.4373 84.2277 30.0789 86.18 27.42C87.7123 25.3517 88.9945 23.1095 90 20.74L90.62 20.42L91.54 19.94L92.68 19.38L93.08 19.18L94.54 18.56H94.66C97.3095 17.4393 100.063 16.5818 102.88 16C102.028 20.5853 100.455 25.0067 98.22 29.1C95.884 30.1467 93.6706 31.4479 91.62 32.98ZM96.22 32.46C94.663 34.8205 92.8886 37.0301 90.92 39.06C88.8614 41.1599 86.6042 43.0555 84.18 44.72C84.5 44.1 84.86 43.5 85.22 42.92C85.4 42.64 85.58 42.36 85.78 42.08L86.28 41.36L86.38 41.22C87.9877 39.0223 89.8772 37.0453 92 35.34L92.9 34.62L93.72 34.04L94.46 33.56C95.08 33.14 95.66 32.8 96.22 32.46ZM84.7 80C86.6417 82.6679 88.9746 85.0278 91.62 87C93.6664 88.5329 95.8807 89.8279 98.22 90.86C100.459 94.9658 102.032 99.401 102.88 104C100.635 103.561 98.4283 102.946 96.28 102.16H96.18L94.68 101.58L94.34 101.44L93.1 100.9L92.38 100.54L91.54 100.14C91.02 99.88 90.52 99.62 90 99.32V99.12C89.1826 97.2615 88.1986 95.4809 87.06 93.8C86.82 93.46 86.58 93.1 86.32 92.76L85.26 91.38C84.9 90.96 84.54 90.52 84.16 90.12L83.9 89.82C82.5234 88.354 81.0173 87.0152 79.4 85.82C78.4075 85.0921 77.3723 84.4242 76.3 83.82C75.9579 83.6007 75.6041 83.4004 75.24 83.22C74.4 82.76 73.54 82.36 72.68 81.98C72.44 81.54 72.2 81.1 71.98 80.64C71.76 80.18 71.52 79.72 71.3 79.26V79.04L70.82 77.98L70.54 77.28L70 76.42C69.88 76.08 69.76 75.74 69.62 75.42C69.5957 75.3172 69.5623 75.2168 69.52 75.12C69.36 74.7 69.22 74.26 69.08 73.84C68.519 72.0824 68.0648 70.2925 67.72 68.48C71.301 69.1692 74.7815 70.3047 78.08 71.86C79.02 72.32 79.94 72.78 80.78 73.26C81.8239 75.6496 83.1392 77.9111 84.7 80ZM84.16 75.28C88.9274 78.5377 93.0052 82.7039 96.16 87.54L94.48 86.52H94.36L93.72 86L92.94 85.44C92.7647 85.3178 92.5977 85.1842 92.44 85.04C90.1706 83.2598 88.1524 81.181 86.44 78.86C86.24 78.58 86.02 78.28 85.84 78C85.66 77.72 85.5 77.5 85.34 77.26V77.14C84.84 76.48 84.5 76 84.16 75.28ZM86.64 97.28C85.48 96.5 84.36 95.66 83.28 94.78L83.16 94.68L81.7 93.42L80.18 91.96C79.66 91.44 79.14 90.92 78.66 90.36C78.16 89.8 77.68 89.26 77.22 88.68C76.28 87.52 75.38 86.34 74.56 85.1C78.4983 87.2645 81.9123 90.2688 84.56 93.9C85.3232 94.9544 86.018 96.0566 86.64 97.2V97.28ZM39.58 85.58C36.9423 87.5677 34.6049 89.9252 32.64 92.58C31.121 94.6533 29.8459 96.8948 28.84 99.26C24.836 101.506 20.5027 103.105 16 104C16.6548 100.558 17.7016 97.2033 19.12 94C19.6 92.96 20.1 92 20.66 90.92C22.9947 89.8993 25.2029 88.6106 27.24 87.08C29.8645 85.0596 32.1878 82.6756 34.14 80C35.6818 77.8951 36.977 75.6202 38 73.22C38.86 72.74 39.76 72.28 40.7 71.82H40.84L41.96 71.32L42.86 70.94L43.22 70.8L44.4 70.34C46.5365 69.5701 48.7298 68.9682 50.96 68.54C50.2744 72.1734 49.139 75.7072 47.58 79.06C47.16 80 46.68 80.92 46.2 81.8C43.8568 82.8043 41.6358 84.0725 39.58 85.58ZM44.26 85.02C42.6214 87.4831 40.7385 89.7747 38.64 91.86C36.6691 93.844 34.5051 95.6262 32.18 97.18C32.5 96.6 32.86 96.02 33.22 95.46L33.76 94.64L34.14 94.1L34.34 93.82C36.1747 91.3152 38.3721 89.0976 40.86 87.24L41.08 87.06L41.7 86.62L42.48 86.1C43.1 85.7 43.68 85.34 44.26 85.02ZM22.62 87.54L23.16 86.72C23.4 86.36 23.66 86 23.92 85.66L24.14 85.36L24.8 84.5L24.98 84.26L25.82 83.24L26.02 83.02L26.74 82.22L27 82C27.3 81.66 27.62 81.34 27.92 81.02L28.9 80.04L29.2 79.76L29.98 79.04L30.26 78.8L31.28 77.92L31.52 77.72L32.38 77.04L32.72 76.78L33.62 76.1L33.84 75.94L34.66 75.36C34.0006 76.5823 33.2589 77.7583 32.44 78.88C30.6131 81.3416 28.4446 83.5303 26 85.38C24.9144 86.1623 23.7859 86.8834 22.62 87.54ZM34.36 40.3L34.14 40C32.9416 38.3667 31.6032 36.841 30.14 35.44C29.2018 34.5775 28.2206 33.7631 27.2 33C25.1634 31.4631 22.9553 30.1678 20.62 29.14C20.34 28.64 20.06 28.12 19.8 27.58L19.54 27.02L19.06 26C18.86 25.56 18.68 25.12 18.5 24.66L18.38 24.4C18.16 23.88 17.96 23.34 17.78 22.8C17.0141 20.582 16.419 18.3087 16 16C20.5237 16.8772 24.8784 18.4706 28.9 20.72C31.2233 26.129 34.9269 30.8327 39.64 34.36C41.6057 35.8686 43.74 37.1438 46 38.16L46.3 38.28C46.84 39.26 47.3 40.14 47.68 41C49.2363 44.3608 50.3716 47.9009 51.06 51.54C49.2864 51.1975 47.5363 50.7432 45.82 50.18L44.6 49.78L44.36 49.68L43.34 49.28L42.82 49.06L42 48.74L40.84 48.22H40.74H40.6C39.68 47.78 38.84 47.34 38.04 46.9C37.92 46.58 37.78 46.28 37.64 45.96C36.7269 43.9745 35.6287 42.0794 34.36 40.3ZM34.66 44.72L33.82 44.14L33.64 44L32.7 43.3L32.38 43.04L31.5 42.34L31.28 42.16L30.24 41.28L30 41.04L29.22 40.3L28.9 40L28 39.06C27.68 38.74 27.38 38.4 27.08 38.08L26.86 37.84L26 37L25.8 36.76C25.52 36.44 25.24 36.1 24.96 35.74L24.78 35.5L24.12 34.66L24 34.36L23.32 33.42C23.1 33.1 22.88 32.78 22.68 32.46C23.8342 33.1041 24.9435 33.8257 26 34.62C28.4786 36.4883 30.6745 38.7044 32.52 41.2C33.3115 42.324 34.0264 43.5 34.66 44.72ZM32.2 22.82C34.506 24.3911 36.6618 26.172 38.64 28.14C40.7446 30.2323 42.6341 32.5305 44.28 35C43.7 34.68 43.12 34.34 42.56 33.96H42.44L41.72 33.48L40.88 32.88C38.3968 31.0171 36.2001 28.8002 34.36 26.3C34.16 26.02 33.98 25.74 33.78 25.48L33.3 24.76V24.64C32.94 24.08 32.6 23.5 32.28 22.94L32.2 22.82ZM65.26 66C63.84 65.82 62.38 65.7 60.92 65.66H59.38C57.4278 65.6603 55.4775 65.7806 53.54 66.02C53.68 65.04 53.76 64.02 53.84 63.06C53.84 62.84 53.84 62.62 53.84 62.42C53.84 62.22 53.84 61.84 53.84 61.56C53.84 61.28 53.84 60.56 53.84 60.06C53.84 59.56 53.84 59.06 53.84 58.56C53.84 58.06 53.84 57.76 53.84 57.36V57C53.84 56.04 53.68 55.1 53.56 54.16V54C55.4973 54.2407 57.4478 54.3609 59.4 54.36H60.88C61.38 54.36 61.86 54.36 62.34 54.36L63.78 54.24L65.18 54.08C64.6664 58.0635 64.6664 62.0965 65.18 66.08L65.26 66ZM59.38 52.4C58.38 52.4 57.38 52.4 56.36 52.3H56L54.7 52.18L53.18 51.98C52.8385 50.0335 52.3776 48.1099 51.8 46.22V45.98C51.1786 44.0164 50.4372 42.0927 49.58 40.22L49.34 39.74C49.34 39.74 49.24 39.56 49.2 39.46C51.2491 40.1276 53.3595 40.5899 55.5 40.84L56.74 40.98H58H60.7H61.28H62L62.94 40.88H63.28L64.44 40.72H64.56C66.2441 40.4598 67.9032 40.0584 69.52 39.52L69.16 40.26C67.4595 44.0004 66.2559 47.9472 65.58 52C63.524 52.2618 61.4525 52.3821 59.38 52.36V52.4ZM40.64 58.86V58.6V57.44C40.6303 57.3804 40.6303 57.3196 40.64 57.26V57.16C40.64 56.84 40.64 56.52 40.64 56.22V56C40.64 55.62 40.64 55.24 40.48 54.88V54.68L40.36 53.94C40.3693 53.8202 40.3693 53.6998 40.36 53.58V53.32L40.18 52.44V52.2L39.88 51.08V50.8C39.88 50.8 39.88 50.6 39.88 50.5C39.88 50.4 39.74 50.02 39.66 49.8L40.18 50.06C43.8755 51.8125 47.7909 53.0571 51.82 53.76C52.4333 57.9242 52.4333 62.1558 51.82 66.32C47.6446 66.9912 43.5804 68.2293 39.74 70L39.22 70.26H39.12C39.2382 69.9392 39.3384 69.612 39.42 69.28C39.429 69.227 39.429 69.173 39.42 69.12L39.72 68.02V67.76L39.96 66.64L40.14 65.54C40.14 65.54 40.14 65.38 40.14 65.3C40.14 65.22 40.24 64.56 40.3 64.18C40.2901 64.107 40.2901 64.033 40.3 63.96C40.3 63.62 40.3 63.26 40.4 62.92C40.3903 62.8604 40.3903 62.7996 40.4 62.74V62.6V61.58V61.32C40.4 60.94 40.4 60.54 40.4 60.14C40.4 59.74 40.66 59.2 40.64 58.82V58.86ZM49.58 79.88C51.3197 76.0992 52.5505 72.1044 53.24 68C55.2947 67.7188 57.3662 67.5785 59.44 67.58C61.4947 67.5744 63.5471 67.7215 65.58 68.02C66.278 72.0838 67.5086 76.0378 69.24 79.78C69.36 80.02 69.48 80.28 69.62 80.52L68.64 80.22L68.16 80.08L67.48 80L67 79.88L66.22 79.72H65.88L64.8 79.52H64.38H63.62H63.2L62.24 79.42H62C61.12 79.42 60.24 79.42 59.36 79.42C55.9103 79.4161 52.4815 79.956 49.2 81.02L49.58 79.88ZM79.08 70C75.9824 68.5354 72.7281 67.4283 69.38 66.7L68.66 66.54L67.44 66.3C66.8267 62.1358 66.8267 57.9042 67.44 53.74C71.4702 53.0213 75.3854 51.7633 79.08 50L79.76 49.68C77.6255 56.3876 77.6255 63.5924 79.76 70.3L79.08 70ZM74.54 35C75.36 33.78 76.24 32.58 77.18 31.44L77.88 30.58H77.98L78.62 29.86L78.84 29.62L79.38 29.04L79.86 28.56C79.86 28.46 80.06 28.34 80.18 28.24C80.2282 28.1817 80.2817 28.1282 80.34 28.08L81.7 26.78C82.2 26.32 82.72 25.9 83.22 25.46C84.2963 24.5694 85.4178 23.735 86.58 22.96C85.9354 24.1267 85.2138 25.2492 84.42 26.32C82.6012 28.7704 80.4391 30.9461 78 32.78C76.8963 33.5946 75.7405 34.3362 74.54 35ZM71.42 18.32L72.58 17.2L72.88 16.96C73.18 16.66 73.5 16.38 73.82 16.1L74.62 15.42L75.1 15.02L76.3 14.08C75.3993 16.4407 74.0189 18.589 72.2461 20.3894C70.4733 22.1897 68.3465 23.603 66 24.54C67.6681 22.3499 69.4787 20.2721 71.42 18.32ZM58.56 27.8H59.42C59.9863 27.8299 60.5537 27.8299 61.12 27.8C60.52 28.74 59.94 29.8 59.4 30.7L58.56 29.24L57.66 27.8H58.56ZM43.7 15C47.1282 17.8178 50.2158 21.0262 52.9 24.56C50.524 23.6257 48.3705 22.203 46.5791 20.384C44.7876 18.5649 43.3979 16.39 42.5 14L43.7 15ZM28.22 6H28.34L28.96 6.26C29.3068 6.38282 29.6473 6.523 29.98 6.68L30.62 6.96L31.58 7.4L32.24 7.7L33.2 8.18L33.82 8.5L34.82 9.04L35.36 9.34L36.62 10.06L36.9 10.22L38.38 11.16L38.84 11.44L39.68 12.02C40.513 15.7474 42.3846 19.1626 45.0781 21.8703C47.7717 24.578 51.1771 26.4675 54.9 27.32L55.28 27.9V28C56.4277 29.7255 57.4761 31.5151 58.42 33.36L59.32 35.1L60.22 33.36C61.1961 31.5084 62.2848 29.7184 63.48 28L63.92 27.34C67.6481 26.4845 71.0571 24.589 73.7511 21.8737C76.4451 19.1584 78.3138 15.7347 79.14 12L80 11.42L80.44 11.12L82 10.2L82.24 10L83.46 9.28L84 9L85 8.46L85.62 8.14L86.58 7.68L87.24 7.36L88.18 6.94L88.84 6.64L89.84 6.22L90.5 6H90.62V7.4C90.6267 11.4415 89.8596 15.447 88.36 19.2V19.32C84.8333 21.3331 81.5913 23.8084 78.72 26.68C75.7395 29.6583 73.1701 33.0214 71.08 36.68C67.381 38.2013 63.4196 38.9827 59.42 38.98H58.42H57.54C56.3122 38.8969 55.0902 38.7434 53.88 38.52L52.96 38.34L52.5 38.24L51.74 38.04L51.12 37.88L50.48 37.68L49.68 37.42L49.18 37.26L47.9 36.76C46.579 34.44 45.06 32.2385 43.36 30.18C42.3901 28.984 41.3552 27.8423 40.26 26.76C37.3863 23.8996 34.1525 21.4255 30.64 19.4C29.0945 15.5893 28.313 11.5121 28.34 7.4L28.22 6ZM15.16 2.56C18.8914 3.0561 22.5633 3.92718 26.12 5.16V7.4C26.1095 10.945 26.6631 14.469 27.76 17.84C25.8201 16.8972 23.815 16.0951 21.76 15.44L20.24 14.98H20.06L18.68 14.62L18.22 14.5L17.18 14.2L15.88 14H15.6C15.3036 11.9266 15.1565 9.83451 15.16 7.74V2.56ZM2.32 12.72C2.32 12.56 2.32 12.4 2.32 12.24C2.32 12.08 2.32 11.5 2.32 11.12C2.32994 10.9802 2.32994 10.8398 2.32 10.7C2.32 10.3 2.32 9.9 2.32 9.5V9.3C2.32 8.78 2.32 8.26 2.32 7.74V2H9.52H10.78H11.3H12.24H12.92H13.28V7.62C13.2738 9.6262 13.4007 11.6306 13.66 13.62C12 13.38 10.54 13.26 9.08 13.22H2.36C2.35747 13.0526 2.3441 12.8856 2.32 12.72ZM4.58 24.48C4.58 24.2 4.4 23.94 4.34 23.66C4.08 22.8 3.86 21.92 3.66 21.06C3.65309 21.0069 3.65309 20.9531 3.66 20.9C3.56 20.5 3.48 20.1 3.4 19.72C3.39037 19.6403 3.39037 19.5597 3.4 19.48C3.4 19.22 3.28 18.94 3.24 18.66L3.04 18L2.8 16.72C2.8 16.38 2.8 16.06 2.66 15.72V15.3H7.54C9.61459 15.2965 11.6867 15.4435 13.74 15.74C14.4715 19.9362 15.7701 24.0136 17.6 27.86H17.48V27.98L16.54 27.7H16.38L15.38 27.44H15.12L14 27.04L12.88 26.84H12.64L11.54 26.7H11.34L10.3 26.6H10H8.86H8.6H7.42H5.18C4.96 25.76 4.76 25.12 4.58 24.48ZM24.3 53.4C22.6595 52.1133 21.0905 50.7379 19.6 49.28L19.28 48.98L18.52 48.2L18 47.6L17.38 46.94L16.64 46.1C16.48 45.92 16.32 45.76 16.18 45.58L14.98 44.16L14 42.86L14.66 43.14H14.84L15.6 43.5H15.78L16.38 43.84L16.58 43.96L17.3 44.4H17.42L18.02 44.82L18.2 44.94L18.86 45.46L19.46 45.98L19.62 46.12L20.24 46.72L20.82 47.34L20.96 47.5L21.46 48.1L21.98 48.78L22.1 48.96L22.52 49.58V49.7C22.68 49.94 22.82 50.18 22.96 50.42C23.0008 50.4756 23.0344 50.536 23.06 50.6L23.42 51.26V51.4C23.56 51.66 23.68 51.92 23.8 52.18V52.36C23.9 52.58 24 52.82 24.08 53.04L24.3 53.4ZM14.92 75.84C17.7243 72.3724 20.9111 69.2325 24.42 66.48V66.6C24.42 66.82 24.24 67.06 24.14 67.28V67.46C24.02 67.72 23.9 67.98 23.76 68.24V68.38L23.4 69.04V69.22L22.94 69.94V70.06L22.52 70.68L22.4 70.86L21.88 71.54L21.38 72.14L21.24 72.3L20.66 72.92L20.04 73.52L19.88 73.66L19.3 74.18L18.64 74.7L18 74.94L17.4 75.36H17.28L16.56 75.8L16.4 76C16.187 76.1013 15.98 76.2148 15.78 76.34C15.7272 76.3292 15.6728 76.3292 15.62 76.34L14.84 76.7H14.66L14 77.14H13.88L14.92 75.84ZM12 80H12.18H12.52H12.9L13.22 79.9L13.6 79.78H13.92L14.3 79.64H14.6L14.98 79.48L15.28 79.36L15.64 79.2L15.94 79.06L16.3 78.9L16.6 78.76L16.96 78.56L17.16 78L17.54 77.78L17.8 77.64L18.16 77.4L18.4 77.24L18.76 77L19 76.84L19.36 76.58L19.56 76.42L20 76L20.18 75.86L20.58 75.5H20.72L21.22 75.04C21.58 74.7 21.92 74.36 22.24 74C22.38 73.84 22.54 73.68 22.68 73.5L22.78 73.38L23.14 72.94L23.26 72.78L23.58 72.38C23.6199 72.3088 23.6668 72.2418 23.72 72.18C23.72 72.04 23.9 71.92 23.98 71.8L24.14 71.56L24.38 71.2L24.54 70.94L24.76 70.58L24.9 70.32L25.12 69.94L25.26 69.68L25.44 69.3C25.4946 69.2109 25.5415 69.1172 25.58 69.02L25.76 68.64L26 68.2C26.0616 68.0838 26.1151 67.9636 26.16 67.84L26.28 67.52C26.28 67.4 26.38 67.28 26.44 67.14C26.5 67 26.44 66.94 26.54 66.84C26.64 66.74 26.54 66.58 26.68 66.46L26.78 66.12L26.9 65.74V65.42C26.9427 65.2892 26.9761 65.1555 27 65.02C27.0114 64.9069 27.0114 64.7931 27 64.68C27.009 64.627 27.009 64.573 27 64.52L27.6 64.1C29.3142 62.9502 31.0902 61.8953 32.92 60.94L34.8 60L33.06 59.1C31.2374 58.1653 29.4681 57.1304 27.76 56L27.02 55.5V55.4C27.0314 55.287 27.0314 55.173 27.02 55.06C27.0291 54.9268 27.0291 54.7932 27.02 54.66C27.02 54.56 27.02 54.44 27.02 54.34L26.9 53.96C26.8575 53.8496 26.824 53.7359 26.8 53.62C26.8 53.5 26.7 53.38 26.66 53.24C26.62 53.1 26.66 53.04 26.66 52.94C26.66 52.84 26.56 52.68 26.5 52.56L26 52.16C25.9551 52.0364 25.9016 51.9161 25.84 51.8L25.72 51.5L25.54 51.12C25.5015 51.0228 25.4546 50.9291 25.4 50.84L25.22 50.46C25.1657 50.3777 25.1189 50.2907 25.08 50.2L24.86 49.82L24.72 49.56L24.5 49.2L24.34 48.94L24 48.58V48.34C24 48.22 23.82 48.1 23.74 47.96C23.6868 47.8982 23.6399 47.8312 23.6 47.76L23.28 47.36L23.16 47.2L22.8 46.76V46.64C22.66 46.46 22.5 46.3 22.36 46.14C22.04 45.78 21.7 45.44 21.34 45.1L20.84 44.64L20.7 44.54L20 44.12L19.88 44L19.48 43.7L19.28 43.54L18.9 43.28L18.68 43.12L18.32 42.88L18 42.7L17.62 42.46L17.38 42.32L17 42.1L16.82 42L16.46 41.8L16.16 41.66L15.8 41.5L15.5 41.36L15.14 41.2L14.84 41.08L14.46 40.92L14.16 40.82L13.78 40.68L13.46 40.58L13.08 40.46L12.74 40.36L12.38 40.26H12.04H12C10.7579 38.3856 9.62279 36.4425 8.6 34.44C8.36 33.98 8.14 33.54 7.92 33.08C7.92 33.08 7.92 32.88 7.78 32.8C7.58 32.4 7.4 32 7.22 31.58L6.96 30.98L6.52 30L6 28.46H7.4H8.9L10.34 28.58L11.72 28.74H12L13.36 28.98H13.4L14.72 29.28H14.88L16.16 29.62H16.34C16.7667 29.74 17.1867 29.88 17.6 30.04H17.78L19.02 30.52L19.36 31.08L19.8 32L20.24 32.72L20.62 33.3L21.1 34.02L21.48 34.6L22 35.3L22.4 35.86L22.94 36.56L23.34 37.08C23.54 37.32 23.72 37.56 23.92 37.78C24.12 38 24.18 38.12 24.32 38.26L24.98 39.02L25.34 39.42C25.7 39.8 26.04 40.18 26.4 40.54C26.76 40.9 27.16 41.3 27.54 41.68L28 42L28.82 42.76L29.28 43.16L30.04 43.82L30.54 44.22L31.28 44.82L31.82 45.22L32.56 45.76L33.14 46.18L33.86 46.68L34.48 47.08L35.2 47.54L35.84 47.92L36.4 48.26L36.64 48.88L36.88 49.54C36.98 49.8 37.06 50.06 37.14 50.32C37.22 50.58 37.3 50.76 37.36 50.98L37.58 51.8L37.76 52.46L37.94 53.3C37.94 53.52 37.94 53.72 38.08 53.94C38.22 54.16 38.18 54.52 38.24 54.82C38.3 55.12 38.24 55.24 38.34 55.46L38.46 56.36V56.98C38.46 57.32 38.46 57.66 38.46 58C38.4501 58.1732 38.4501 58.3468 38.46 58.52C38.46 59.02 38.46 59.54 38.46 60.06C38.46 60.58 38.46 61.1 38.46 61.62C38.4496 61.7865 38.4496 61.9535 38.46 62.12C38.46 62.46 38.46 62.8 38.46 63.14V63.76L38.34 64.66C38.34 64.88 38.34 65.1 38.24 65.32C38.14 65.54 38.14 65.88 38.08 66.18C38.02 66.48 38.08 66.62 37.94 66.84L37.76 67.66L37.58 68.32L37.36 69.14C37.36 69.36 37.22 69.58 37.14 69.8C37.06 70.02 36.98 70.32 36.88 70.58L36.64 71.26L36.4 71.86L35.84 72.2L35.2 72.58L34.46 73.06L33.86 73.44L33.12 73.96L32.54 74.36L31.82 74.9L31.28 75.32C31.02 75.5 30.78 75.7 30.54 75.9L30.02 76.32L29.28 76.96L28.82 77.36L28 78L27.64 78.32L26.52 79.44C26.16 79.8 25.8 80.18 25.46 80.56C25.12 80.94 25.24 80.82 25.12 80.96C25 81.1 24.66 81.46 24.44 81.72L24.04 82.2L23.46 82.92L23.04 83.44L22.5 84.14L22.1 84.7L21.6 85.4C21.46 85.58 21.34 85.78 21.2 85.98L20.74 86.68C20.6017 86.8793 20.4749 87.0863 20.36 87.3C20.2 87.52 20.06 87.76 19.92 87.98L19.54 88.62L19.22 89.18H19.12L17.9 89.64H17.72C17.2933 89.8 16.8733 89.94 16.46 90.06H16.28L15 90.4H14.84L13.52 90.7H13.24C12.8 90.7 12.36 90.88 11.9 90.94H11.78L10.4 91.1L8.96 91.2H7.54H6C7.5813 87.257 9.59351 83.5009 12 80ZM27.64 59.26C27.64 58.98 27.64 58.72 27.64 58.44V58.34L28.16 58.68L28.68 59L30.44 60.04L29.12 60.8L28.8 61C28.44 61.22 28.08 61.44 27.74 61.68L27.58 61.8C27.58 61.24 27.58 60.66 27.58 60.08C27.58 59.5 27.6 59.44 27.58 59.16L27.64 59.26ZM13.06 112.38V117.7H12.7H12H11.18H10.48H9.7H2.1V112.38C2.1 111.86 2.1 111.34 2.1 110.82C2.09012 110.747 2.09012 110.673 2.1 110.6C2.1 110.16 2.1 109.72 2.1 109.3C2.10994 109.16 2.10994 109.02 2.1 108.88C2.1 108.5 2.1 108.12 2.1 107.74C2.1 107.36 2.1 107.44 2.1 107.28C2.10991 107.12 2.10991 106.96 2.1 106.8H9.42H10.34H10.88H11.68H12.22L13.44 106.68C13.1936 108.57 13.0667 110.474 13.06 112.38ZM13.74 104.38C13.02 104.48 12.28 104.58 11.52 104.64H11.32H10.38H9.7H9.1H2.6C2.9641 101.823 3.53226 99.0352 4.3 96.3C4.56 95.38 4.84 94.48 5.14 93.58H7.32H8.52H8.86H10H10.2L11.24 93.46H11.44L12.58 93.3H12.82L13.94 93.1H14L15.14 92.84H15.38L16.5 92.54H16.66L17.58 92V92.16H17.68C15.8239 96.0169 14.4985 100.107 13.74 104.32V104.38ZM26.12 112.66V114.9C22.5633 116.133 18.8914 117.004 15.16 117.5V112.38C15.1558 110.285 15.3029 108.193 15.6 106.12L17.18 105.8L17.98 105.62L18.74 105.44L19.98 105.1H20.28L21.74 104.66C23.7602 103.999 25.7317 103.197 27.64 102.26C26.5913 105.605 26.0783 109.095 26.12 112.6V112.66ZM43.7 105.06L42.5 106C43.4051 103.624 44.7983 101.463 46.5896 99.658C48.3808 97.853 50.5305 96.4433 52.9 95.52C50.2007 99.0169 47.1144 102.197 43.7 105V105.06ZM57.7 92.32L57.86 92.06C58.38 91.22 58.9 90.38 59.38 89.52C59.92 90.5 60.5 91.52 61.1 92.42C59.9667 92.269 58.8225 92.2155 57.68 92.26L57.7 92.32ZM75.16 105.06L73.86 104L73.28 103.48L72.62 102.88C72.32 102.62 72.04 102.34 71.76 102.06L71.4 101.74L70.34 100.66H70.24L69.12 99.46C68 98 66.92 96.76 66 95.46C68.3604 96.4034 70.4987 97.8276 72.2789 99.6422C74.059 101.457 75.442 103.622 76.34 106C76 105.64 75.52 105.32 75.14 105L75.16 105.06ZM90.62 114H90.5L89.86 113.74L88.86 113.34L88.2 113.04L87.24 112.6L86.6 112.3L86 112L85.72 111.86H85.6L85.12 111.6L84 110.98L83.46 110.7L82.16 110L82 109.8L80.5 108.86L80 108.6L79.1 108C78.8305 106.857 78.4625 105.739 78 104.66V104.4C77.76 103.82 77.48 103.26 77.2 102.72L77.08 102.52C76.9 102.2 76.7 101.88 76.5 101.56L76.26 101.2C75.8875 100.622 75.4801 100.068 75.04 99.54L74 98.4L73.28 97.68L73.14 97.54L72.52 97C72.14 96.68 71.74 96.36 71.32 96.06L70.34 95.38C70.02 95.18 69.7 94.98 69.36 94.8L68.66 94.4C67.1783 93.6534 65.6143 93.0829 64 92.7L63.86 92.5L63.5 92C62.98 91.22 62.48 90.42 62 89.62C61.52 88.82 60.88 87.62 60.38 86.64L59.5 84.96L58.6 86.7C57.6138 88.5266 56.5255 90.296 55.34 92L54.9 92.66C51.174 93.52 47.7674 95.4169 45.0741 98.1314C42.3808 100.846 40.5107 104.267 39.68 108L38.82 108.58C38.681 108.685 38.5339 108.778 38.38 108.86L36.9 109.8L36.6 110C36.2 110.26 35.78 110.5 35.36 110.72L34.82 111.02L33.82 111.56L33.2 111.88L32.24 112.36L31.58 112.66L30.62 113.1L29.96 113.4L28.96 113.8L28.34 114.06H28.22V112.6C28.193 108.488 28.9745 104.411 30.52 100.6C34.0314 98.573 37.2651 96.099 40.14 93.24C43.1266 90.267 45.6966 86.903 47.78 83.24H47.94C51.6036 81.773 55.5137 81.0195 59.46 81.02C60.44 81.02 61.46 81.02 62.4 81.16H62.9H63.62L64.48 81.28H64.74C66.8976 81.666 69.009 82.2759 71.04 83.1C73.1199 86.7654 75.6903 90.1297 78.68 93.1C81.5487 95.9745 84.7912 98.4501 88.32 100.46C89.8561 104.273 90.6372 108.349 90.62 112.46V114ZM103.68 117.36C102.28 117.18 100.9 116.94 99.54 116.66C99.08 116.66 98.64 116.46 98.18 116.36L96.78 116H96.44L95.42 115.72L94.72 115.52L94.06 115.32L92.72 114.86V112.6C92.72 112.16 92.72 111.7 92.72 111.26C92.72 110.82 92.72 110.74 92.72 110.48C92.72 110.22 92.72 110.1 92.72 109.92C92.72 109.74 92.72 109.18 92.6 108.8C92.6088 108.734 92.6088 108.666 92.6 108.6C92.6 108.18 92.5 107.76 92.44 107.34C92.1733 105.596 91.7653 103.877 91.22 102.2C95.0671 104.094 99.16 105.44 103.38 106.2C103.666 108.274 103.813 110.366 103.82 112.46L103.68 117.36ZM116.5 107.22C116.5 107.36 116.5 107.52 116.5 107.66C116.5 107.8 116.5 108.44 116.5 108.82C116.5 109.2 116.5 109.08 116.5 109.22V110.52V110.74C116.5 111.26 116.5 111.78 116.5 112.3V118H109.42H108.26H107.74H106.8H106.12H105.78V112.38C105.78 111.88 105.78 111.4 105.78 110.9C105.78 110.4 105.78 110.4 105.78 110.16C105.78 109.92 105.78 109.66 105.78 109.4L105.56 108C105.56 107.5 105.46 107 105.4 106.52C107.331 106.76 109.274 106.88 111.22 106.88H116.46C116.48 106.96 116.48 107.14 116.5 107.3V107.22ZM116.22 104.68H111.3C109.293 104.68 107.288 104.54 105.3 104.26H105.1C105.1 103.72 104.9 103.18 104.8 102.66L104.6 102L104.42 101.16C104.32 100.76 104.22 100.36 104.1 99.96C103.98 99.56 104.1 99.72 104.1 99.6C103.98 99.12 103.84 98.66 103.68 98.2C103.691 98.1473 103.691 98.0927 103.68 98.04C103.018 95.9875 102.216 93.9828 101.28 92.04C104.598 93.1271 108.068 93.6807 111.56 93.68H113.78C114.96 97.2831 115.777 100.995 116.22 104.76V104.68ZM104 75.84L105 77.12C102.636 76.1844 100.493 74.7654 98.7093 72.9538C96.9253 71.1423 95.5393 68.9781 94.64 66.6C98.1018 69.3134 101.242 72.4135 104 75.84ZM104 44.16C101.236 47.5876 98.0888 50.6877 94.62 53.4C95.5225 51.0237 96.9097 48.8612 98.6933 47.0501C100.477 45.239 102.618 43.8188 104.98 42.88C104.56 43.32 104.24 43.74 104 44.16ZM112.94 28.58L112.64 29.38L112.28 30.24L111.96 31.02C111.82 31.3 111.7 31.58 111.56 31.88C111.42 32.18 111.34 32.38 111.22 32.62L110.8 33.48L110.44 34.2L109.98 35.1L109.62 35.76L109.04 36.78L108.74 37.3L107.84 38.76L107.42 39.4L106.98 40.1C103.256 40.9724 99.8558 42.8819 97.1728 45.6075C94.4897 48.333 92.6338 51.763 91.82 55.5C91.5989 55.6351 91.3853 55.782 91.18 55.94C89.4612 57.0825 87.6856 58.1372 85.86 59.1L84 60L85.74 60.9C87.5743 61.8369 89.3568 62.8717 91.08 64L91.72 64.44C92.5089 68.2053 94.3535 71.6682 97.0382 74.4237C99.7228 77.1792 103.136 79.1133 106.88 80L107.28 80.6L107.76 81.34L108.64 82.78L108.96 83.36C109.14 83.68 109.34 84 109.52 84.34L109.88 85C110.04 85.3 110.2 85.6 110.34 85.9L110.7 86.6L111.12 87.5C111.24 87.74 111.36 87.98 111.46 88.22L111.86 89.1C111.86 89.36 112.08 89.6 112.18 89.86L112.54 90.74L112.84 91.5V91.68H111.44C107.398 91.6811 103.395 90.8859 99.66 89.34L99.1 88.38L98.44 87.3L98 86.38C97.58 85.74 97.14 85.1 96.68 84.48C95.4566 82.7726 94.1203 81.149 92.68 79.62L92.58 79.52C89.9071 76.793 86.9116 74.402 83.66 72.4L82.66 71.78V71.64C82.48 71.16 82.3 70.7 82.14 70.24C81.86 69.4 81.62 68.56 81.4 67.72C81.4 67.6 81.4 67.5 81.4 67.38C79.885 60.9931 80.3809 54.2941 82.82 48.2C89.998 44.0209 95.9292 38 100 30.76L100.32 30.62L101.4 30.22C101.76 30.08 102.14 29.96 102.5 29.86L102.84 29.74L104.22 29.36C106.655 28.7614 109.152 28.4526 111.66 28.44H113.12L112.94 28.58ZM91.3 61.74C90.36 61.14 89.4 60.56 88.44 60L89.88 59.16L91.24 58.3C91.1333 59.4575 91.1333 60.6225 91.24 61.78L91.3 61.74ZM113.64 26.38H111.5H110.16C107.093 26.4898 104.057 27.0284 101.14 27.98C101.36 27.5 101.58 27.04 101.78 26.58C102.22 25.6067 102.62 24.6067 102.98 23.58C103.16 23.08 103.34 22.56 103.5 22.06C103.509 22.007 103.509 21.953 103.5 21.9C103.66 21.44 103.8 20.98 103.92 20.5L104.04 20.08L104.34 18.94C104.34 18.64 104.48 18.34 104.54 18.02C104.605 17.7962 104.658 17.5693 104.7 17.34C104.82 16.82 104.92 16.28 105 15.74L106.36 15.56H106.8L108 15.36H108.42H109.78H116.3C115.781 19.1125 114.89 22.8041 113.64 26.38ZM116.72 7.62C116.72 8.14 116.72 8.66 116.72 9.18V9.4V10.72C116.72 10.84 116.72 10.98 116.72 11.12C116.72 11.26 116.72 11.88 116.72 12.26C116.72 12.64 116.72 12.56 116.72 12.7C116.72 12.84 116.72 13.04 116.72 13.2H109.8H108.36C107.38 13.2 106.36 13.34 105.46 13.46C105.58 12.5 105.68 11.46 105.74 10.58C105.74 10.22 105.74 9.88 105.74 9.54C105.75 9.38683 105.75 9.23317 105.74 9.08C105.74 8.58 105.74 8.08 105.74 7.6V2.3H106.1H106.78H107.6H108.3H109.1H116.68L116.72 7.62Z" fill="url(#paint0_linear_37_625)"/>
</g>
<defs>
<linearGradient id="paint0_linear_37_625" x1="0" y1="60" x2="118.82" y2="60" gradientUnits="userSpaceOnUse">
<stop stop-color="#6563FF"/>
<stop offset="1" stop-color="#14CAE6"/>
</linearGradient>
<clipPath id="clip0_37_625">
<rect width="118.82" height="120" fill="white"/>
</clipPath>
</defs>
</svg>