<svg width="100" height="78.46" xmlns="http://www.w3.org/2000/svg" data-name="Layer 1">
 <defs>
  <linearGradient y2="0.49888" x2="1.00045" y1="0.49888" x1="0.00005" id="linear-gradient">
   <stop stop-color="#3283af" offset="0"/>
   <stop stop-color="#00c2b2" offset="1"/>
  </linearGradient>
 </defs>
 <title>logg</title>
 <g>
  <title>Layer 1</title>
  <path stroke="null" id="svg_1" fill="url(#linear-gradient)" d="m85.31332,11.92891l0,-0.53637a36.64644,36.64644 0 0 0 0.22086,-3.92809l0,-4.46446l-5.61607,0l-0.86765,0l-0.47326,0l-0.41016,0l-0.94653,0.09465l0,0l-0.47326,0l0,0a33.72798,33.72798 0 0 0 -6.46795,1.4829l0,0l-0.78877,0.28396a33.27049,33.27049 0 0 0 -4.14895,1.7984a34.99002,34.99002 0 0 0 -3.89654,2.35055l-0.23663,0.29973l0,0c-0.69412,0.47326 -1.37247,0.99386 -2.03504,1.57755a34.28012,34.28012 0 0 0 -6.53105,7.06742a10.91663,10.91663 0 0 1 -3.36018,0l-0.44171,0c-0.39439,-0.56792 -0.82032,-1.13583 -1.24626,-1.6722l-0.45749,-0.56792c-0.26818,-0.33129 -0.56792,-0.67835 -0.86765,-1.00963s-0.8361,-0.94653 -1.29359,-1.38824a32.45016,32.45016 0 0 0 -2.66606,-2.42942c-0.64679,-0.53637 -1.34092,-1.05696 -2.03504,-1.57755l0,0l-0.18931,-0.1262l-0.94653,-0.63102a33.69643,33.69643 0 0 0 -7.08319,-3.51793l0,0l0,0l-0.72567,-0.25241l0,0a33.60177,33.60177 0 0 0 -6.54682,-1.49867l0,0l-0.48904,0l0,0l-0.8992,-0.15775l-0.44171,0l-0.39439,0l-0.58369,0l-0.20508,0l-1.40402,0l-4.46446,0l0,4.33826a37.18281,37.18281 0 0 0 0.15775,3.94387l0,0.52059l0,0a35.14777,35.14777 0 0 0 1.57755,6.54682l0,0l0.28396,0.78877l0,0l0.14198,0.39439l0,0a35.36863,35.36863 0 0 0 3.1551,6.4995l0,0l0.8361,1.21471l0,0l0.14198,0.18931l0,0c0.50482,0.72567 1.00963,1.40402 1.57755,2.06659a35.08467,35.08467 0 0 0 6.98854,6.59415a11.23214,11.23214 0 0 1 0.17353,1.94038a11.42145,11.42145 0 0 1 -0.17353,1.95616a35.06889,35.06889 0 0 0 -6.98854,6.59415c-0.58369,0.72567 -1.15161,1.4829 -1.6722,2.24012c-0.26818,0.41016 -0.53637,0.80455 -0.78877,1.21471l0,0l0,0a34.70606,34.70606 0 0 0 -3.1551,6.48372l0,0l-0.14198,0.39439l0,0l-0.37861,0.85188l0,0a35.27397,35.27397 0 0 0 -1.46712,6.53105l0,0l0,0.53637a36.70954,36.70954 0 0 0 -0.22086,3.94387l0,4.46446l5.48987,0l0.75722,0l0.17353,0l0.74145,0l0.23663,0l0.97808,-0.09465l0,0l0.48904,0l0,0a34.81648,34.81648 0 0 0 6.48372,-1.4829l0,0l0.78877,-0.26818l1.05696,-0.41016c0.63102,-0.25241 1.26204,-0.52059 1.87728,-0.82032l0.20508,-0.09465a35.11622,35.11622 0 0 0 4.8904,-2.82381l0,0l0.17353,-0.1262l0,0c0.69412,-0.48904 1.37247,-1.00963 2.03504,-1.57755a35.16355,35.16355 0 0 0 6.53105,-7.06742l0,0l0.42594,0l0.15775,0l0.29973,0l2.01926,0l0.42594,0l0,0l0.44171,0a34.83226,34.83226 0 0 0 6.53105,7.08319c0.64679,0.53637 1.32514,1.04118 2.03504,1.57755l0,0l0.18931,0.14198a35.11622,35.11622 0 0 0 6.98854,3.75456l1.05696,0.39439l0.78877,0.28396l0,0a33.72798,33.72798 0 0 0 6.46795,1.4829l0,0l0.50482,0l0,0c0.88343,0.09465 1.75108,0.15775 2.63451,0.18931l5.7265,0l0,-4.60644a36.70954,36.70954 0 0 0 -0.22086,-3.94387l0,-0.07888l0,-0.45749l0,0a35.27397,35.27397 0 0 0 -1.43557,-6.53105l0,0l-0.25241,-0.74145l0,0a34.70606,34.70606 0 0 0 -4.10162,-8.1086l0,0l0,0l0,-0.07888l0,-0.07888l0,0c-0.48904,-0.7099 -1.00963,-1.40402 -1.57755,-2.06659a35.06889,35.06889 0 0 0 -6.31019,-6.13666l-0.61524,-0.45749a11.23214,11.23214 0 0 1 -0.17353,-1.94038a11.37412,11.37412 0 0 1 0.17353,-1.94038a34.70606,34.70606 0 0 0 6.98854,-6.59415c0.53637,-0.66257 1.05696,-1.35669 1.57755,-2.05081l0,0l0,-0.11043l0,0a34.70606,34.70606 0 0 0 4.10162,-8.1086l0,0l0.18931,-1.00963l0,0a35.14777,35.14777 0 0 0 1.46712,-6.54682l-0.04733,0zm-15.99634,1.57755a22.2592,22.2592 0 0 0 0.58369,-2.24012l0,0c0,-0.25241 0.09465,-0.50482 0.1262,-0.75722l0,-0.14198l0.09465,-0.67835s0,-0.1262 0,-0.18931s0,-0.39439 0,-0.58369s0,-0.26818 0,-0.39439s0,-0.26818 0,-0.39439s0,-0.52059 0,-0.78877l0,-1.30936a5.6634,5.6634 0 0 1 0.55214,-0.18931l0.22086,-0.07888l0.67835,-0.20508l0.1262,0l0.773,-0.22086l0,0a29.721,29.721 0 0 1 4.22783,-0.75722l0,2.88691a26.01377,26.01377 0 0 1 -0.26818,3.67569a26.81832,26.81832 0 0 0 -7.11474,2.319l0,0.04733zm0.31551,8.8816a20.06641,20.06641 0 0 0 -4.07007,4.10162a19.53004,19.53004 0 0 0 -2.17702,3.77034l0,0l0,0.17353c-0.55214,0.29973 -1.07273,0.56792 -1.57755,0.80455a25.06724,25.06724 0 0 1 -6.08934,2.00349a26.69211,26.69211 0 0 1 1.98771,-6.18399c0.25241,-0.53637 0.52059,-1.07273 0.80455,-1.57755a19.30919,19.30919 0 0 0 3.94387,-2.28744a19.48272,19.48272 0 0 0 6.31019,-8.01394l0.36284,-0.18931l0.53637,-0.28396l0.66257,-0.31551l0.25241,-0.1262l0.69412,-0.37861l0,0a25.77713,25.77713 0 0 1 4.9535,-1.41979a25.96644,25.96644 0 0 1 -2.72916,7.68266a20.27149,20.27149 0 0 0 -3.80189,2.19279l-0.0631,0.04733zm2.69761,-0.29973a27.00762,27.00762 0 0 1 -3.1551,3.86499a26.4397,26.4397 0 0 1 -3.94387,3.31285a11.29524,11.29524 0 0 1 0.61524,-1.04118l0,0c0.09465,-0.17353 0.20508,-0.33129 0.31551,-0.50482l0.29973,-0.41016a0.15775,0.15775 0 0 1 0,0a17.77897,17.77897 0 0 1 3.26552,-3.43905l0.55214,-0.42594l0.47326,-0.34706l0.42594,-0.28396l0,0c0.48904,-0.37861 0.80455,-0.58369 1.15161,-0.773l0,0.04733zm-6.76768,27.82795a19.67202,19.67202 0 0 0 4.13318,4.10162a20.27149,20.27149 0 0 0 3.86499,2.25589a26.1242,26.1242 0 0 1 2.72916,7.68266l0,0a25.5405,25.5405 0 0 1 -3.94387,-1.00963l0,0c-0.29973,-0.09465 -0.59947,-0.22086 -0.88343,-0.33129l-0.18931,-0.18931l-0.72567,-0.31551l-0.42594,-0.20508l-0.48904,-0.22086l-0.8992,-0.48904l0,0l0,-0.1262l0,0a19.92443,19.92443 0 0 0 -1.71953,-3.1551l-0.42594,-0.61524l-0.63102,-0.80455c-0.20508,-0.25241 -0.42594,-0.50482 -0.64679,-0.74145l-0.34706,-0.17353a19.041,19.041 0 0 0 -2.65028,-2.3821a17.35303,17.35303 0 0 0 -1.81418,-1.21471l-0.61524,-0.34706a16.70623,16.70623 0 0 0 -1.57755,-0.72567c-0.14198,-0.25241 -0.26818,-0.52059 -0.41016,-0.78877s-0.26818,-0.53637 -0.39439,-0.80455l0,-0.14198c-0.09465,-0.20508 -0.18931,-0.41016 -0.26818,-0.61524s-0.11043,-0.26818 -0.17353,-0.41016l-0.14198,-0.34706c0,-0.18931 -0.14198,-0.37861 -0.22086,-0.58369a0.773,0.773 0 0 0 0,-0.17353c0,-0.25241 -0.17353,-0.48904 -0.25241,-0.74145l0,0a26.92874,26.92874 0 0 1 -0.80455,-3.1551a24.79905,24.79905 0 0 1 6.16821,1.97194c0.55214,0.26818 1.08851,0.53637 1.57755,0.82032a20.17684,20.17684 0 0 0 2.17702,3.97542zm-0.29973,-2.74493a26.39238,26.39238 0 0 1 3.94387,3.32863a27.00762,27.00762 0 0 1 3.1551,3.86499l0,0l-1.08851,-0.63102l0,0l-0.41016,-0.25241c-0.15775,-0.09465 -0.31551,-0.22086 -0.47326,-0.33129l0,0l-0.29973,-0.23663a17.84207,17.84207 0 0 1 -3.54948,-3.70724a5.8527,5.8527 0 0 1 -0.36284,-0.50482l-0.28396,-0.42594l0,-0.07888c-0.23663,-0.34706 -0.44171,-0.69412 -0.63102,-1.02541zm1.45134,12.85702l0,0c-0.67835,-0.45749 -1.32514,-0.94653 -1.95616,-1.45134l0,-0.07888l-0.85188,-0.72567l-0.8992,-0.85188l0,0c-0.29973,-0.31551 -0.59947,-0.61524 -0.88343,-0.94653l0,0c-0.28396,-0.31551 -0.56792,-0.64679 -0.8361,-0.97808l0,0a25.68248,25.68248 0 0 1 -1.57755,-2.09814l0,0a18.93058,18.93058 0 0 1 2.00349,1.30936a18.47309,18.47309 0 0 1 3.81767,3.86499a16.39072,16.39072 0 0 1 1.18316,1.92461l0,0.03155zm-27.60709,-6.81501a19.7509,19.7509 0 0 0 -6.31019,8.01394a25.01991,25.01991 0 0 1 -7.55646,2.76071a25.87179,25.87179 0 0 1 1.86151,-5.86848l0,0c0.28396,-0.61524 0.58369,-1.21471 0.8992,-1.81418a17.93672,17.93672 0 0 0 3.83344,-2.28744a19.5616,19.5616 0 0 0 6.31019,-8.07705c0.48904,-0.28396 1.02541,-0.55214 1.57755,-0.82032l0,0l0.66257,-0.29973l0.52059,-0.22086l0.22086,-0.09465l0.67835,-0.25241l0,0a25.24077,25.24077 0 0 1 3.84922,-1.05696a25.80869,25.80869 0 0 1 -1.97194,6.16821c-0.25241,0.55214 -0.53637,1.08851 -0.82032,1.57755a20.00331,20.00331 0 0 0 -3.75456,2.24012l0,0.03155zm2.74493,-0.33129a25.14612,25.14612 0 0 1 -3.29708,4.02275a25.5405,25.5405 0 0 1 -3.78612,3.1551a10.75888,10.75888 0 0 1 0.61524,-1.00963l0,0l0.31551,-0.47326c0,-0.11043 0.14198,-0.22086 0.22086,-0.31551l0.1262,-0.17353a18.47309,18.47309 0 0 1 3.81767,-3.86499l0.1262,-0.09465l0.36284,-0.25241l0.45749,-0.31551l0,0c0.36284,-0.31551 0.7099,-0.50482 1.04118,-0.7099l0,0.03155zm-12.62038,1.4829c0.09465,-0.15775 0.20508,-0.31551 0.31551,-0.47326l0,0l0.44171,-0.61524l0.1262,-0.17353l0.39439,-0.50482l0.09465,-0.1262c0.17353,-0.20508 0.33129,-0.41016 0.50482,-0.59947l0.11043,-0.14198l0.41016,-0.47326a1.4829,1.4829 0 0 0 0.15775,-0.15775l0.53637,-0.56792c0.18931,-0.20508 0.37861,-0.39439 0.58369,-0.58369l0.17353,-0.15775l0.44171,-0.42594l0.17353,-0.14198l0.59947,-0.52059l0.14198,-0.11043a6.18399,6.18399 0 0 1 0.50482,-0.39439l0.18931,-0.15775l0.53637,-0.39439l0.1262,-0.09465l0.48904,-0.33129a21.4862,21.4862 0 0 1 -1.30936,2.05081a18.47309,18.47309 0 0 1 -3.83344,3.84922a16.95864,16.95864 0 0 1 -1.97194,1.21471l0.0631,0.03155zm6.81501,-27.70174a1.57755,1.57755 0 0 0 -0.1262,-0.17353a20.12951,20.12951 0 0 0 -2.36632,-2.68183a21.54931,21.54931 0 0 0 -1.71953,-1.46712a19.34074,19.34074 0 0 0 -3.86499,-2.25589l-0.47326,-0.8992a2.319,2.319 0 0 0 -0.15775,-0.34706c-0.09465,-0.18931 -0.18931,-0.39439 -0.26818,-0.58369s-0.23663,-0.52059 -0.34706,-0.78877a0.66257,0.66257 0 0 0 0,-0.15775c-0.1262,-0.31551 -0.23663,-0.63102 -0.34706,-0.94653l0,0a26.45548,26.45548 0 0 1 -1.12006,-3.89654l0,0a25.4774,25.4774 0 0 1 7.55646,2.77648a19.07256,19.07256 0 0 0 2.17702,3.83344a19.59315,19.59315 0 0 0 4.0543,4.10162a19.6878,19.6878 0 0 0 3.83344,2.20857l0,0l0.17353,0.07888c0.33129,0.56792 0.58369,1.08851 0.82032,1.57755a25.91911,25.91911 0 0 1 1.97194,6.18399l0,0a23.15841,23.15841 0 0 1 -3.1551,-0.78877l0,0l-0.7099,-0.25241l-0.14198,0l-0.53637,-0.29973l-0.29973,-0.1262l-0.42594,-0.17353l-0.67835,-0.31551l0,0l-0.07888,0c-0.53637,-0.25241 -1.02541,-0.52059 -1.49867,-0.773l-0.37861,-0.67835a20.30304,20.30304 0 0 0 -1.89306,-3.1551zm0.18931,2.58718l-0.50482,-0.34706l-0.09465,0l-0.55214,-0.41016l-0.18931,-0.25241l-0.52059,-0.41016l-0.1262,-0.09465l-0.61524,-0.53637l-0.14198,-0.14198l-0.47326,-0.42594l-0.15775,-0.15775l-0.58369,-0.56792c-0.18931,-0.18931 -0.36284,-0.37861 -0.53637,-0.58369l0,0l-0.1262,-0.14198l-0.41016,-0.47326l-0.11043,-0.1262l-0.50482,-0.59947l-0.11043,-0.14198l-0.37861,-0.50482a0.69412,0.69412 0 0 1 -0.1262,-0.17353c-0.14198,-0.17353 -0.26818,-0.36284 -0.39439,-0.55214s-0.25241,-0.36284 -0.37861,-0.55214l0,0a16.81666,16.81666 0 0 1 1.92461,1.26204a18.93058,18.93058 0 0 1 3.86499,3.84922a19.67202,19.67202 0 0 1 1.24626,2.05081l0,0.03155zm-1.45134,-12.84124a26.62901,26.62901 0 0 1 7.08319,7.09897l0,0l-1.00963,-0.61524l0,0l-0.42594,-0.28396a5.6003,5.6003 0 0 1 -0.48904,-0.36284a18.03137,18.03137 0 0 1 -3.81767,-3.84922c-0.1262,-0.15775 -0.23663,-0.33129 -0.34706,-0.48904l-0.28396,-0.41016l0,-0.07888c-0.22086,-0.33129 -0.41016,-0.66257 -0.59947,-0.99386l-0.11043,-0.01578zm19.38807,25.24077c-0.8361,-0.11043 -1.68798,-0.17353 -2.55563,-0.20508l-0.85188,0a27.32313,27.32313 0 0 0 -3.42328,0.22086c0,-0.58369 0.1262,-1.15161 0.15775,-1.7353a3.04467,3.04467 0 0 0 0,-0.37861c0,-0.17353 0,-0.33129 0,-0.50482s0,-0.58369 0,-0.88343s0,-0.58369 0,-0.88343s0,-0.45749 0,-0.69412a0.64679,0.64679 0 0 1 0,-0.17353c0,-0.56792 -0.09465,-1.12006 -0.15775,-1.6722l0,0a27.07072,27.07072 0 0 0 3.4075,0.20508l0.88343,0l0.8361,0l0,0l0.85188,0l0,0l0.8361,-0.09465l0,0a27.74907,27.74907 0 0 0 0,6.98854l0.01578,-0.18931zm-3.4075,-7.93507l0,0c-0.58369,0 -1.18316,0 -1.78263,0l-0.1262,0l-0.75722,-0.07888l-0.8992,-0.11043a30.88839,30.88839 0 0 0 -0.80455,-3.37595l0,-0.14198a26.55013,26.55013 0 0 0 -1.29359,-3.37595l-0.14198,-0.28396s0,-0.11043 -0.07888,-0.15775a18.34688,18.34688 0 0 0 3.69146,0.80455l0,0l0.72567,0.07888l0,0l0.74145,0l1.57755,0l0.33129,0l0.39439,0l0.55214,0l0.20508,0a4.73264,4.73264 0 0 0 0.66257,-0.09465l0.07888,0a19.94021,19.94021 0 0 0 2.90269,-0.69412l0,0l-0.20508,0.44171a27.51244,27.51244 0 0 0 -2.14547,6.89388a25.24077,25.24077 0 0 1 -3.62836,0.09465zm-11.04284,3.77034l0,-0.14198l0,-0.67835l0,-0.17353l0,-0.55214l0,-0.1262l-0.09465,-0.66257l0,0l0,-0.1262c0,-0.14198 0,-0.28396 0,-0.42594s0,-0.14198 0,-0.22086l0,0a0.45749,0.45749 0 0 0 0,-0.14198c0,-0.17353 0,-0.34706 -0.11043,-0.52059l0,-0.14198c0,-0.22086 -0.11043,-0.44171 -0.17353,-0.66257l0,-0.07888a0.773,0.773 0 0 0 0,-0.17353c0,-0.14198 0,-0.26818 -0.11043,-0.41016l0,0l0,0l0,0l0,0l0.31551,0.14198a27.26003,27.26003 0 0 0 6.48372,2.16124a25.43007,25.43007 0 0 1 0,7.36715a26.70789,26.70789 0 0 0 -6.83078,2.09814l-0.29973,0.15775l0,0l0,0l0,0l0,0l0,0c0,-0.20508 0.11043,-0.39439 0.17353,-0.58369l0,-0.09465c0,-0.22086 0.1262,-0.42594 0.17353,-0.64679l0,-0.14198l0.14198,-0.66257l0,0c0,-0.22086 0.07888,-0.42594 0.11043,-0.64679l0,-0.14198l0.09465,-0.66257l0,-0.1262c0,-0.20508 0,-0.39439 0,-0.59947l0,-0.18931l0,-0.59947l0,-0.14198l0,0c0,-0.22086 0,-0.45749 0,-0.69412s0.1262,-0.53637 0.1262,-0.75722zm5.23746,12.33643a28.08035,28.08035 0 0 0 2.14547,-6.90966a25.24077,25.24077 0 0 1 3.65991,-0.25241a27.37046,27.37046 0 0 1 3.59681,0.25241a27.11805,27.11805 0 0 0 2.14547,6.89388c0,0.15775 0.14198,0.29973 0.22086,0.45749l0,0l-0.56792,-0.17353l-0.28396,-0.07888l-0.37861,-0.11043l-0.28396,0l-0.44171,-0.11043l-0.20508,0l-0.63102,-0.11043l-0.25241,0l-0.44171,0l-0.25241,0l-0.55214,0l-0.09465,0c-0.50482,0 -1.02541,0 -1.57755,0a19.37229,19.37229 0 0 0 -5.99468,0.64679l0.18931,-0.50482zm17.32148,-5.80538a27.87527,27.87527 0 0 0 -5.69495,-1.94038l-0.42594,-0.07888l-0.66257,-0.1262a25.43007,25.43007 0 0 1 0,-7.31982a26.51858,26.51858 0 0 0 6.83078,-2.17702l0.39439,-0.18931a19.814,19.814 0 0 0 0,12.09979l-0.44171,-0.26818zm-2.68183,-20.50812c0.48904,-0.7099 1.00963,-1.41979 1.57755,-2.08236l0,0l0.41016,-0.48904l0,0l0.37861,-0.42594l0.1262,-0.14198l0.31551,-0.33129l0.26818,-0.28396l0.18931,-0.18931l0.09465,-0.09465l0.80455,-0.75722l0.8992,-0.773l0,0c0.63102,-0.52059 1.29359,-1.00963 1.97194,-1.46712a17.52656,17.52656 0 0 1 -1.27781,1.97194a17.74742,17.74742 0 0 1 -3.81767,3.86499a15.77548,15.77548 0 0 1 -1.94038,1.19894zm-1.81418,-9.7808l0,0l0.69412,-0.64679l0.15775,-0.15775l0.58369,-0.45749a5.47409,5.47409 0 0 1 0.45749,-0.39439l0.28396,-0.23663l0.69412,-0.56792a10.63267,10.63267 0 0 1 -6.08934,6.15244a33.6491,33.6491 0 0 1 3.2182,-3.67569l0,-0.01578zm-7.54068,5.55297l0.52059,0c0.34706,0 0.67835,0 1.00963,0l0,0c-0.36284,0.55214 -0.69412,1.12006 -1.02541,1.70375c-0.15775,-0.28396 -0.31551,-0.56792 -0.48904,-0.85188s-0.33129,-0.56792 -0.52059,-0.85188l0.50482,0zm-8.72384,-7.47758a33.68065,33.68065 0 0 1 5.41099,5.6003l0,0a10.66422,10.66422 0 0 1 -6.10511,-6.15244l0,0l0.69412,0.55214zm-9.0709,-5.31634l0,0l0.34706,0.15775l0.59947,0.23663l0.37861,0.17353l0.56792,0.25241l0.37861,0.18931l0.56792,0.26818l0.36284,0.18931l0.59947,0.31551l0.31551,0.17353l0.72567,0.42594l0.15775,0.09465l0.88343,0.55214l0.25241,0.17353l0.50482,0.33129a11.87894,11.87894 0 0 0 8.91315,8.97625l0.23663,0.34706l0,0a34.13814,34.13814 0 0 1 1.84573,3.1551l0.67835,1.00963l0,0l0,0l0.52059,-1.02541a31.42476,31.42476 0 0 1 1.84573,-3.1551l0.25241,-0.39439a11.84739,11.84739 0 0 0 8.92892,-8.97625l0.50482,-0.34706l0.25241,-0.15775l0.88343,-0.55214l0.17353,-0.11043l0.72567,-0.41016l0.31551,-0.17353l0.58369,-0.31551l0.36284,-0.15775l0.56792,-0.28396l0.37861,-0.17353l0.56792,-0.25241l0.37861,-0.17353l0.58369,-0.23663l0.37861,-0.15775l0.07888,0l0,0.86765a18.69394,18.69394 0 0 1 -1.32514,6.90966l0,0a27.51244,27.51244 0 0 0 -5.64762,4.32248a27.1496,27.1496 0 0 0 -4.48024,5.86848a18.12603,18.12603 0 0 1 -6.84656,1.34092l-0.61524,0l-0.52059,0l0,0a16.50115,16.50115 0 0 1 -2.16124,-0.26818l0,0l-0.53637,-0.11043l-0.26818,0l-0.44171,-0.11043l-0.37861,-0.09465l-0.39439,-0.09465l-0.47326,-0.15775l-0.28396,-0.09465l-0.75722,-0.28396l0,0a26.26617,26.26617 0 0 0 -2.61873,-3.89654a24.16804,24.16804 0 0 0 -1.81418,-2.00349a26.20307,26.20307 0 0 0 -5.64762,-4.32248a18.7886,18.7886 0 0 1 -1.34092,-6.98854l-0.04733,-0.85188zm-7.66688,-1.90883a32.13465,32.13465 0 0 1 6.4364,1.57755l0,1.30936a19.48272,19.48272 0 0 0 0.9623,6.12089a25.55628,25.55628 0 0 0 -3.50216,-1.53022l0,0l-0.8992,-0.28396l-0.09465,0l-0.80455,-0.22086l-0.28396,0l-0.63102,-0.14198l-0.773,-0.15775l-0.15775,0a26.01377,26.01377 0 0 1 -0.26818,-3.67569l0.01578,-2.99734zm-7.5249,5.88425c0,-0.09465 0,-0.18931 0,-0.28396l0,-0.66257s0,-0.15775 0,-0.23663s0,-0.47326 0,-0.7099l0,0l0,0l0,-0.18931c0,-0.29973 0,-0.61524 0,-0.91498l0,-3.26552l4.22783,0l0.74145,0l0.14198,0l0.55214,0l0.39439,0l0.20508,0l0,3.1551a28.53784,28.53784 0 0 0 0.25241,3.53371c-0.8361,-0.09465 -1.70375,-0.17353 -2.55563,-0.20508l-3.92809,0c-0.01578,-0.04733 -0.01578,-0.1262 -0.03155,-0.22086zm1.32514,6.89388l-0.14198,-0.47326c-0.14198,-0.52059 -0.26818,-1.02541 -0.39439,-1.57755l0,-0.09465l-0.14198,-0.69412s0,-0.09465 0,-0.14198l-0.09465,-0.47326c0,-0.11043 0,-0.23663 0,-0.34706l-0.14198,-0.80455l0,0c0,-0.18931 0,-0.37861 -0.07888,-0.58369a1.23049,1.23049 0 0 1 0,-0.25241l2.72916,0a25.57205,25.57205 0 0 1 3.62836,0.28396a27.41778,27.41778 0 0 0 2.25589,7.13052l0,0l0,0l0,0l0,0l-0.53637,-0.15775l-0.09465,0l0,0l-0.59947,-0.15775l-0.14198,0l-0.66257,-0.15775l0,0l-0.74145,-0.07888l-0.17353,0l-0.64679,-0.09465l-0.11043,0l-0.61524,0l-0.11043,0l-0.67835,0l-2.14547,0c-0.1262,-0.58369 -0.25241,-0.9623 -0.36284,-1.32514zm11.56343,16.95864a33.36514,33.36514 0 0 1 -2.74493,-2.41365l-0.18931,-0.17353l-0.44171,-0.45749l-0.34706,-0.36284l-0.36284,-0.37861c-0.14198,-0.17353 -0.29973,-0.33129 -0.44171,-0.48904l-0.26818,-0.31551c-0.23663,-0.26818 -0.47326,-0.55214 -0.69412,-0.8361l0,0l-0.58369,-0.75722l0,0l0.37861,0.15775l0.11043,0l0.44171,0.22086l0.09465,0a2.69761,2.69761 0 0 1 0.36284,0.20508l0.11043,0l0.42594,0.25241l0,0l0.36284,0.25241l0.09465,0.07888l0.39439,0.29973l0,0l0.33129,0.29973l0.11043,0.09465c0.11043,0.11043 0.23663,0.22086 0.34706,0.34706l0,0a3.77034,3.77034 0 0 1 0.34706,0.36284l0.09465,0.09465l0.28396,0.34706l0,0a3.70724,3.70724 0 0 1 0.29973,0.39439l0.07888,0.09465l0.23663,0.36284l0,0l0.26818,0.44171l0,0.09465a3.1551,3.1551 0 0 1 0.20508,0.39439l0,0c0,0.15775 0.14198,0.29973 0.20508,0.45749l0,0.09465a4.36981,4.36981 0 0 1 0.15775,0.41016l0.33129,0.42594zm-5.48987,13.15675a34.59563,34.59563 0 0 1 5.6003,-5.48987l0,0a3.1551,3.1551 0 0 1 -0.15775,0.41016l0,0.09465c0,0.15775 -0.1262,0.31551 -0.20508,0.47326l0,0.07888c0,0.1262 -0.1262,0.25241 -0.20508,0.37861l0,0.11043l-0.26818,0.42594l0,0l-0.23663,0.36284l0,0.11043c-0.09465,0.1262 -0.18931,0.26818 -0.29973,0.39439l0,0l-0.28396,0.36284l-0.09465,0.09465l-0.34706,0.36284l0,0c-0.11043,0.1262 -0.23663,0.23663 -0.34706,0.34706l-0.11043,0.09465l-0.33129,0.28396l0,0l-0.39439,0.29973l-0.09465,0.07888l-0.36284,0.23663l0,0l-0.42594,0.26818l-0.11043,0l-0.36284,0.18931l-0.09465,0l-0.44171,0.22086l-0.11043,0l-0.37861,0.15775l0,0l0.0631,-0.34706zm-1.75108,2.3821l0.09465,0l0.20508,0l0.22086,0l0.18931,0l0.22086,0l0.18931,0l0.22086,-0.07888l0.18931,0l0.20508,-0.09465l0.18931,0l0.20508,-0.09465l0.17353,-0.07888l0.22086,-0.11043l0.17353,-0.07888l0.20508,-0.11043l0.15775,-0.09465l0.22086,-0.11043l0.14198,-0.09465l0.22086,-0.14198l0.14198,-0.07888l0.22086,-0.15775l0.1262,0l0.22086,-0.15775l0.11043,-0.09465l0.23663,-0.17353l0.09465,-0.07888l0.25241,-0.22086l0.07888,0l0.28396,-0.26818l0,0c0.20508,-0.18931 0.41016,-0.39439 0.59947,-0.59947l0,0l0.26818,-0.29973l0,-0.07888s0.14198,-0.15775 0.20508,-0.25241l0.07888,-0.09465l0.17353,-0.23663l0,-0.11043l0.15775,-0.23663l0.09465,-0.1262l0.14198,-0.22086l0.09465,-0.14198l0.1262,-0.22086l0.09465,-0.14198c0,-0.07888 0,-0.15775 0.11043,-0.22086l0.09465,-0.15775a0.9623,0.9623 0 0 1 0.11043,-0.22086a0.85188,0.85188 0 0 1 0.07888,-0.17353l0.09465,-0.22086a0.58369,0.58369 0 0 0 0.07888,-0.17353l0.09465,-0.22086a1.84573,1.84573 0 0 0 0,-0.17353a1.23049,1.23049 0 0 1 0,-0.22086s0,-0.1262 0,-0.18931s0,-0.14198 0.07888,-0.22086a0.88343,0.88343 0 0 1 0,-0.18931s0,-0.14198 0,-0.22086l0,-0.18931a1.30936,1.30936 0 0 0 0,-0.23663l0,-0.18931a1.00963,1.00963 0 0 1 0.74145,-0.69412l0,0l0.36284,-0.23663a29.42127,29.42127 0 0 1 3.1551,-1.86151l1.02541,-0.53637l0,0l-1.08851,-0.52059a33.01808,33.01808 0 0 1 -3.1551,-1.86151l-0.44171,-0.29973l0,0l0,-0.18931a1.30936,1.30936 0 0 0 0,-0.23663l0,-0.18931c0,-0.07888 0,-0.15775 0,-0.23663a1.19894,1.19894 0 0 1 0,-0.17353c0,-0.07888 0,-0.15775 0,-0.23663s0,-0.11043 0,-0.17353l-0.09465,-0.22086a0.88343,0.88343 0 0 0 0,-0.18931l-0.09465,-0.22086a1.84573,1.84573 0 0 1 0,-0.17353l-0.63102,-0.33129a0.74145,0.74145 0 0 1 0,-0.15775a1.43557,1.43557 0 0 1 -0.11043,-0.22086l-0.09465,-0.15775c0,-0.07888 -0.07888,-0.14198 -0.11043,-0.22086l-0.09465,-0.15775l-0.20508,-0.20508l-0.09465,-0.15775l-0.14198,-0.22086l-0.09465,-0.07888l-0.15775,-0.22086a0.55214,0.55214 0 0 0 0,-0.1262l-0.17353,-0.22086l-0.07888,-0.11043a1.57755,1.57755 0 0 1 -0.20508,-0.25241l0,0l-0.26818,-0.29973l0,0c-0.18931,-0.22086 -0.39439,-0.41016 -0.59947,-0.61524l0,0l-0.28396,-0.26818l-0.07888,0l-0.25241,-0.20508l-0.09465,0l-0.23663,-0.17353l-0.11043,-0.09465l-0.22086,-0.15775l-0.29973,-0.41016l-0.22086,-0.14198l-0.14198,-0.09465l-0.22086,-0.1262l-0.14198,-0.09465l-0.22086,-0.1262l-0.15775,-0.07888l-0.23663,-0.07888l-0.15775,-0.09465l-0.22086,-0.09465l-0.17353,-0.07888l-0.20508,-0.09465l-0.18931,-0.07888l-0.20508,-0.07888l-0.18931,0l-0.23663,-0.14198l-0.18931,0l-0.22086,0l-0.18931,0l-0.22086,0l-0.20508,0l0,0a33.57022,33.57022 0 0 1 -1.97194,-3.64414l0,0c-0.14198,-0.25241 -0.26818,-0.52059 -0.39439,-0.78877a0.85188,0.85188 0 0 1 0,-0.17353l-0.33129,-0.69412c0,-0.1262 -0.11043,-0.23663 -0.15775,-0.36284s-0.15775,-0.36284 -0.22086,-0.53637s-0.25241,-0.58369 -0.36284,-0.88343l1.7353,0l0.8361,0l0,0l0.82032,0.11043l0,0l0.80455,0.14198l0.07888,0l0.773,0.17353l0.09465,0l0.75722,0.20508l0.09465,0l0.74145,0.25241l0.11043,0a6.89388,6.89388 0 0 1 0.72567,0.28396l0,0a3.77034,3.77034 0 0 0 0.20508,0.33129l0.20508,0.36284c0.07888,0.14198 0.17353,0.28396 0.26818,0.42594l0.22086,0.34706a3.67569,3.67569 0 0 0 0.26818,0.41016l0.23663,0.34706l0.29973,0.41016c0.07888,0.11043 0.14198,0.22086 0.22086,0.31551l0.33129,0.42594c0,0.09465 0.14198,0.20508 0.23663,0.29973l0.33129,0.41016l0.23663,0.28396c0.1262,0.15775 0.26818,0.29973 0.39439,0.44171l0.20508,0.23663l0.61524,0.66257l0.67835,0.66257l0.20508,0.18931l0.48904,0.44171l0.25241,0.23663l0.45749,0.37861l0.28396,0.23663l0.44171,0.34706l0.31551,0.25241l0.53637,0.44171l0.34706,0.23663l0.42594,0.29973l0.36284,0.22086l0.42594,0.28396l0.36284,0.22086l0.34706,0.20508c0,0.11043 0.07888,0.23663 0.1262,0.34706s0.11043,0.26818 0.14198,0.39439s0.11043,0.31551 0.15775,0.45749s0.09465,0.26818 0.1262,0.39439s0.09465,0.31551 0.1262,0.47326s0.07888,0.25241 0.11043,0.39439s0,0.31551 0.11043,0.48904a3.1551,3.1551 0 0 0 -0.01578,0.31551l0.09465,0.50482l0,0.37861c0,0.17353 0,0.36284 0,0.53637s0,0.23663 0,0.36284l0,0.59947c0,0.09465 0,0.18931 0,0.29973s0,0.59947 0,0.8992s0,0.61524 0,0.91498s0,0.20508 0,0.29973l0,0.59947c0,0.1262 0,0.23663 0,0.36284s0,0.34706 0,0.53637a3.1551,3.1551 0 0 1 0,0.37861c0,0.15775 0,0.33129 0,0.50482a3.1551,3.1551 0 0 0 -0.07888,0.37861c0,0.15775 0,0.33129 -0.11043,0.48904s0,0.25241 -0.11043,0.39439s0,0.31551 -0.1262,0.47326a3.54948,3.54948 0 0 1 -0.1262,0.37861c0,0.15775 -0.09465,0.31551 -0.15775,0.47326a3.69146,3.69146 0 0 1 -0.14198,0.37861l-0.1262,0.36284l-0.34706,0.20508l-0.34706,0.33129l-0.44171,0.26818l-0.34706,0.23663l-0.42594,0.29973l-0.34706,0.23663l-0.42594,0.31551l-0.31551,0.23663l-0.44171,0.34706l-0.29973,0.23663l-0.44171,0.39439l-0.26818,0.22086l-0.47326,0.44171l-0.20508,0.20508l-0.66257,0.64679l0,0q-0.31551,0.31551 -0.61524,0.66257l-0.20508,0.22086l-0.39439,0.45749l-0.23663,0.28396l-0.34706,0.41016l-0.23663,0.31551l-0.31551,0.39439l-0.23663,0.34706l-0.28396,0.39439c-0.09465,0.11043 -0.15775,0.23663 -0.23663,0.34706s-0.18931,0.26818 -0.26818,0.41016l-0.23663,0.36284l-0.25241,0.41016c0,0.11043 -0.14198,0.23663 -0.22086,0.36284l-0.18931,0.33129l0,0l-0.72567,0.28396l-0.11043,0a6.72035,6.72035 0 0 1 -0.74145,0.23663l-0.09465,0l-0.75722,0.20508l-0.09465,0l-0.773,0.17353l-0.07888,0l-0.80455,0.1262l0,0a6.86233,6.86233 0 0 1 -0.82032,0.09465l0,0l-0.8361,0l-1.98771,0a34.32745,34.32745 0 0 1 3.53371,-6.65725zm9.18133,-12.14712c0,-0.15775 0,-0.31551 0,-0.47326l0,0l0,0l0,0l0.29973,0.20508l0.31551,0.18931l1.02541,0.59947l-0.773,0.45749l-0.18931,0.11043l-0.63102,0.39439l0,0l-0.09465,0c0,-0.33129 0,-0.66257 0,-1.00963l0.04733,-0.47326zm-8.53453,31.2039l0,3.1551l-0.20508,0l-0.41016,0l-0.47326,0l-0.41016,0l-4.92195,0l0,-3.1551c0,-0.31551 0,-0.61524 0,-0.93075l0,-0.1262c0,-0.25241 0,-0.50482 0,-0.773s0,-0.15775 0,-0.23663l0,-0.66257c0,-0.09465 0,-0.17353 0,-0.26818s0,-0.18931 0,-0.28396l4.29093,0l0.53637,0l0.33129,0l0.45749,0l0.31551,0l0.7099,0a28.99533,28.99533 0 0 0 -0.22086,3.2813zm0.41016,-4.73264c-0.42594,0 -0.86765,0.11043 -1.29359,0.14198l-0.1262,0l-0.55214,0l-4.57489,0a34.04349,34.04349 0 0 1 1.00963,-4.8904l0,0c0.15775,-0.53637 0.31551,-1.07273 0.50482,-1.57755l2.14547,0l0.67835,0l0.11043,0l0.61524,0l0.11043,0l0.66257,-0.09465l0.15775,0l0.64679,-0.11043l0,0l0.66257,-0.14198l0.14198,0l0.64679,-0.17353l0.11043,0l0.55214,-0.17353l0,0.09465l0,0l0,0a26.81832,26.81832 0 0 0 -2.22434,6.92544l0.01578,0zm7.25672,4.84307l0,1.32514a33.23894,33.23894 0 0 1 -6.4364,1.57755l0,-3.01312a26.2504,26.2504 0 0 1 0.26818,-3.69146l0.93075,-0.17353l0.47326,-0.11043l0.44171,-0.11043l0.72567,-0.18931l0.17353,0l0.85188,-0.25241l0,0a29.87876,29.87876 0 0 0 3.50216,-1.43557l0,0a19.5616,19.5616 0 0 0 -0.93075,6.07356zm10.30139,-4.49601l-0.69412,0.55214a10.64845,10.64845 0 0 1 6.08934,-6.13666a34.12236,34.12236 0 0 1 -5.39521,5.58452zm8.20325,-7.47758l0.09465,-0.14198c0.31551,-0.48904 0.59947,-0.99386 0.88343,-1.57755l0,0c0.33129,0.58369 0.66257,1.15161 1.02541,1.70375a14.60809,14.60809 0 0 0 -2.00349,0.0631l0,-0.04733zm10.23829,7.47758l-0.75722,-0.63102l-0.33129,-0.31551l-0.39439,-0.34706l-0.50482,-0.47326l-0.20508,-0.18931l-0.61524,-0.63102l0,0l-0.66257,-0.7099l0,0c-0.66257,-0.72567 -1.27781,-1.46712 -1.87728,-2.24012l0,0a10.66422,10.66422 0 0 1 6.10511,6.15244l-0.75722,-0.61524zm9.08668,5.31634l-0.07888,0l-0.37861,-0.15775l-0.58369,-0.23663l-0.37861,-0.18931l-0.56792,-0.25241l-0.37861,-0.18931l-0.41016,-0.20508l-0.15775,0l0,0l-0.28396,-0.14198l-0.59947,-0.33129l-0.29973,-0.15775l-0.773,-0.45749l-0.1262,0l-0.88343,-0.55214l-0.23663,-0.15775l-0.52059,-0.36284a11.80006,11.80006 0 0 0 -0.63102,-1.95616a0.56792,0.56792 0 0 0 0,-0.14198c-0.14198,-0.34706 -0.29973,-0.66257 -0.47326,-0.99386l0,-0.11043c-0.11043,-0.18931 -0.22086,-0.37861 -0.34706,-0.56792l-0.1262,-0.20508a11.37412,11.37412 0 0 0 -0.74145,-0.97808c-0.18931,-0.23663 -0.37861,-0.45749 -0.58369,-0.67835l-0.42594,-0.41016l-0.07888,-0.07888l-0.36284,-0.31551a8.61341,8.61341 0 0 0 -0.7099,-0.56792l-0.8361,-0.52059l-0.56792,-0.33129l-0.42594,-0.23663a11.50033,11.50033 0 0 0 -2.76071,-0.99386l0,-0.1262l-0.15775,-0.25241l0,0c-0.29973,-0.45749 -0.59947,-0.93075 -0.88343,-1.40402s-0.64679,-1.15161 -0.9623,-1.75108l-0.55214,-1.00963l0,0l0,0l0,0l-0.52059,1.02541a33.55445,33.55445 0 0 1 -1.84573,3.1551l-0.25241,0.37861a11.87894,11.87894 0 0 0 -8.92892,8.97625a5.71072,5.71072 0 0 1 -0.50482,0.34706l-0.25241,0.17353c-0.28396,0.18931 -0.58369,0.36284 -0.88343,0.53637l-0.15775,0.11043l-0.72567,0.41016l-0.33129,0.18931l-0.58369,0.31551l-0.36284,0.17353l-0.56792,0.28396l-0.37861,0.17353l-0.56792,0.26818l-0.37861,0.15775l-0.58369,0.25241l-0.37861,0.14198l0,0l0,-0.86765a18.55196,18.55196 0 0 1 1.35669,-6.98854a27.49666,27.49666 0 0 0 5.63185,-4.30671a27.1496,27.1496 0 0 0 4.36981,-5.82115l0.09465,0a17.92095,17.92095 0 0 1 6.75191,-1.38824c0.58369,0 1.15161,0 1.7353,0.07888l0.28396,0l0.42594,0l0.50482,0l0.15775,0a17.9525,17.9525 0 0 1 3.69146,1.07273a27.74907,27.74907 0 0 0 4.46446,5.86848a27.33891,27.33891 0 0 0 5.6634,4.32248a18.42576,18.42576 0 0 1 1.35669,6.97276l0,1.00963zm7.65111,1.98771l0,0c-0.82032,-0.11043 -1.57755,-0.25241 -2.42942,-0.42594l0,0l-0.80455,-0.17353l0,0l-0.75722,-0.18931l-0.18931,0l-0.59947,-0.15775l-0.41016,-0.1262l-0.37861,-0.11043l-0.78877,-0.26818l0,-1.32514c0,-0.25241 0,-0.52059 0,-0.773s0,-0.31551 0,-0.45749s0,-0.22086 0,-0.33129s0,-0.44171 0,-0.64679a0.39439,0.39439 0 0 1 0,-0.1262c0,-0.25241 0,-0.50482 -0.11043,-0.74145l0,0a19.89288,19.89288 0 0 0 -0.91498,-3.02889a26.1242,26.1242 0 0 0 7.11474,2.319a26.40815,26.40815 0 0 1 0.26818,3.69146l0,2.87114zm7.5249,-5.96313c0,0.09465 0,0.17353 0,0.26818l0,0.67835c0,0.07888 0,0.15775 0,0.22086s0,0.52059 0,0.773l0,0.1262c0,0.31551 0,0.61524 0,0.93075l0,3.26552l-4.84307,0l-0.29973,0l-0.55214,0l-0.39439,0l-0.20508,0l0,-3.1551c0,-0.29973 0,-0.58369 0,-0.88343s0,-0.28396 0,-0.42594a3.9912,3.9912 0 0 0 0,-0.44171c0,-0.26818 0,-0.52059 0,-0.78877l0,-0.09465l-0.09465,-0.86765l0,0a27.26003,27.26003 0 0 0 3.4075,0.22086l3.1551,0a1.7353,1.7353 0 0 0 -0.17353,0.22086l0,-0.04733zm-0.17353,-1.4829l-2.88691,0a26.40815,26.40815 0 0 1 -3.58103,-0.18931l0,0c0,-0.31551 -0.11043,-0.63102 -0.17353,-0.94653a4.51179,4.51179 0 0 0 -0.11043,-0.44171c0,-0.15775 0,-0.33129 -0.11043,-0.48904s-0.11043,-0.47326 -0.17353,-0.7099a1.16739,1.16739 0 0 1 0,-0.22086l-0.23663,-0.80455a0.22086,0.22086 0 0 1 0,-0.09465a28.39586,28.39586 0 0 0 -1.40402,-3.53371l0,0a19.41962,19.41962 0 0 0 6.02623,0.9623l1.29359,0a33.0023,33.0023 0 0 1 1.35669,6.51527l0,-0.04733zm-7.22517,-16.91131l0.58369,0.75722l0,0a10.66422,10.66422 0 0 1 -6.13666,-6.18399a35.02157,35.02157 0 0 1 5.55297,5.42677zm0,-18.58352a34.34322,34.34322 0 0 1 -5.55297,5.42677a10.68,10.68 0 0 1 6.07356,-6.16821l-0.52059,0.74145zm5.25323,-9.11823l-0.18931,0.45749c0,0.17353 -0.14198,0.34706 -0.20508,0.50482l-0.18931,0.45749l-0.23663,0.50482l-0.18931,0.44171a5.0166,5.0166 0 0 0 -0.25241,0.50482c0,0.14198 -0.14198,0.28396 -0.20508,0.42594l-0.28396,0.52059c0,0.1262 -0.14198,0.25241 -0.20508,0.39439s-0.22086,0.39439 -0.34706,0.58369a3.1551,3.1551 0 0 1 -0.17353,0.31551l-0.52059,0.85188l-0.23663,0.37861l-0.26818,0.39439a11.91049,11.91049 0 0 0 -8.8816,9.03935l-0.37861,0.25241a33.7122,33.7122 0 0 1 -3.1551,1.86151l-1.02541,0.52059l1.02541,0.53637a31.12502,31.12502 0 0 1 3.1551,1.86151l0.37861,0.28396a11.91049,11.91049 0 0 0 8.89737,9.02357a2.77648,2.77648 0 0 1 0.22086,0.36284c0.09465,0.14198 0.20508,0.28396 0.28396,0.42594s0.34706,0.56792 0.52059,0.85188l0.18931,0.33129l0.33129,0.56792l0.20508,0.39439l0.28396,0.52059c0,0.14198 0.1262,0.28396 0.20508,0.42594s0.17353,0.33129 0.25241,0.50482l0.18931,0.44171l0.23663,0.50482l0.18931,0.44171l0.20508,0.52059l0.18931,0.45749l0,0.09465l-0.82032,0a17.82629,17.82629 0 0 1 -6.84656,-1.40402l-0.33129,-0.56792l-0.39439,-0.63102l-0.31551,-0.47326c-0.23663,-0.37861 -0.50482,-0.74145 -0.773,-1.12006a27.18115,27.18115 0 0 0 -2.39787,-2.83959l0,0l0,0a27.62287,27.62287 0 0 0 -5.25323,-4.2436l-0.59947,-0.34706l0,-0.09465l0,0c-0.11043,-0.28396 -0.20508,-0.55214 -0.29973,-0.82032a12.226,12.226 0 0 1 -0.42594,-1.4829l0,-0.18931a18.93058,18.93058 0 0 1 -0.50482,-4.33826a18.39421,18.39421 0 0 1 1.34092,-6.90966a27.33891,27.33891 0 0 0 9.95433,-10.23829l0.18931,0l0.63102,-0.23663l0.63102,-0.20508l0.20508,0c0.26818,-0.09465 0.53637,-0.15775 0.82032,-0.23663l0,0a17.35303,17.35303 0 0 1 4.35403,-0.53637l0.86765,0l-0.04733,-0.04733zm-12.63616,19.51427c-0.55214,-0.36284 -1.12006,-0.69412 -1.68798,-1.02541l0.85188,-0.48904l0.80455,-0.50482l0,0c0,0.33129 0,0.67835 0,1.00963s0,0.58369 0.03155,1.00963zm13.09365,-20.72898l-2.03504,0a18.70972,18.70972 0 0 0 -5.28479,0.94653l0,0l0.37861,-0.82032l0,0c0.25241,-0.58369 0.48904,-1.16739 0.69412,-1.76685l0,0c0.09465,-0.29973 0.20508,-0.58369 0.29973,-0.88343a0.22086,0.22086 0 0 1 0,-0.09465l0.23663,-0.82032a1.18316,1.18316 0 0 0 0,-0.25241c0,-0.22086 0.1262,-0.44171 0.17353,-0.66257s0.09465,-0.36284 0.1262,-0.53637l0.09465,-0.41016c0,-0.29973 0.1262,-0.61524 0.17353,-0.93075l0,0l0.80455,-0.11043l0.23663,0l0.59947,0l0.25241,0l0.80455,0l3.95965,0a32.89188,32.89188 0 0 1 -1.51445,6.26287l0,0.07888zm1.81418,-11.04284c0,0.29973 0,0.61524 0,0.91498l0,0.09465c0,0.25241 0,0.50482 0,0.75722a1.19894,1.19894 0 0 0 0,0.23663l0,0.67835c0,0.07888 0,0.17353 0,0.25241a1.7353,1.7353 0 0 0 0,0.28396l-4.0543,0l-0.85188,0l0,0l-1.7353,0.15775l0,0c0,-0.56792 0.1262,-1.12006 0.15775,-1.68798c0,-0.20508 0,-0.41016 0,-0.61524s0,-0.17353 0,-0.26818s0,-0.58369 0,-0.86765l0,-3.1551l0.20508,0l0.39439,0l0.48904,0l5.33211,0l0.0631,3.2182z" class="cls-1"/>
 </g>
</svg>